<?xml version="1.0" encoding="UTF-8"?>
<!DOCTYPE svg PUBLIC "-//W3C//DTD SVG 1.1//EN" "http://www.w3.org/Graphics/SVG/1.1/DTD/svg11.dtd">
<!-- Creator: CorelDRAW 2019 (64 Bit) -->
<svg xmlns="http://www.w3.org/2000/svg" xml:space="preserve" width="210mm" height="297mm" version="1.1" style="shape-rendering:geometricPrecision; text-rendering:geometricPrecision; image-rendering:optimizeQuality; fill-rule:evenodd; clip-rule:evenodd"
viewBox="0 0 21000 29700"
 xmlns:xlink="http://www.w3.org/1999/xlink"
 xmlns:xodm="http://www.corel.com/coreldraw/odm/2003">
 <defs>
  <style type="text/css">
   <![CDATA[
    .fil0 {fill:black}
   ]]>
  </style>
 </defs>
 <g id="Camada_x0020_1">
  <metadata id="CorelCorpID_0Corel-Layer"/>
  <path class="fil0" d="M4500 2850c-2484.38,0 -4500,2015.62 -4500,4500l0 15000c0,2484.38 2015.63,4500 4500,4500l13500 0 1500 0c829.69,0 1500,-670.31 1500,-1500 0,-829.69 -670.31,-1500 -1500,-1500l0 -3000c829.69,0 1500,-670.31 1500,-1500l0 -15000c0,-829.69 -670.31,-1500 -1500,-1500l-1500 0 -13500 0zm5700.66 6279.06l-549.57 -354.59 0 1460.02c-417.33,-99.44 -730.24,-223.47 -1102.61,-419 -343.71,-180.48 -569.66,-399.52 -863.38,-628.84 -519.51,-405.54 -663.71,-1102.7 -1104.03,-1175.86 -378.04,-62.73 -1402.97,755.09 -2203.72,1645.91 -1006.88,1120.3 -1308.84,1911.85 -1280.7,1917.41 942.38,187.39 2127.89,486.06 2924.57,989.02 1115.08,704.14 1403.24,1786.4 1729.16,1790.12 1204.79,13.8 2173.55,328.67 2716.49,1054.21l33.18 45.57 33.08 -45.57c542.95,-725.54 1511.7,-1040.41 2716.5,-1054.21 325.93,-3.72 614.07,-1085.98 1729.16,-1790.12 796.68,-502.96 1982.18,-801.63 2924.57,-989.02 28.13,-5.56 -273.82,-797.11 -1280.71,-1917.41 -800.74,-890.82 -1825.67,-1708.64 -2203.71,-1645.91 -440.31,73.16 -584.52,770.32 -1104.02,1175.86 -293.72,229.32 -519.68,448.36 -863.38,628.84 -372.38,195.53 -685.3,319.56 -1102.62,419l0 -1460.02 -549.57 354.59 -598.69 0zm-5700.66 11720.94l12000 0 0 3000 -12000 0c-829.69,0 -1500,-670.31 -1500,-1500 0,-829.69 670.31,-1500 1500,-1500z"/>
  <path class="fil0" d="M-26166.88 4751.23l-549.58 -354.59 0 1460.04c-417.31,-99.45 -730.23,-223.48 -1102.61,-419 -343.7,-180.48 -569.66,-399.53 -863.38,-628.85 -519.5,-405.55 -663.71,-1102.7 -1104.03,-1175.86 -378.03,-62.73 -1402.96,755.09 -2203.71,1645.9 -1006.89,1120.31 -1308.84,1911.85 -1280.7,1917.43 942.39,187.38 2127.89,486.06 2924.57,989.01 1115.09,704.14 1403.24,1786.4 1729.16,1790.12 1204.79,13.8 2173.55,328.67 2716.49,1054.21l33.18 45.57 33.09 -45.57c542.94,-725.54 1511.69,-1040.41 2716.49,-1054.21 325.92,-3.72 614.07,-1085.98 1729.16,-1790.12 796.68,-502.95 1982.18,-801.63 2924.57,-989.01 28.13,-5.58 -273.82,-797.12 -1280.7,-1917.43 -800.75,-890.81 -1825.68,-1708.63 -2203.72,-1645.9 -440.31,73.16 -584.52,770.31 -1104.02,1175.86 -293.72,229.32 -519.68,448.37 -863.39,628.85 -372.37,195.52 -685.29,319.55 -1102.61,419l0 -1460.04 -549.57 354.59 -598.69 0z"/>
 </g>
</svg>
