<?xml version="1.0" encoding="UTF-8"?>
<!DOCTYPE svg PUBLIC "-//W3C//DTD SVG 1.1//EN" "http://www.w3.org/Graphics/SVG/1.1/DTD/svg11.dtd">
<!-- Creator: CorelDRAW 2019 (64 Bit) -->
<svg xmlns="http://www.w3.org/2000/svg" xml:space="preserve" width="210mm" height="297mm" version="1.1" style="shape-rendering:geometricPrecision; text-rendering:geometricPrecision; image-rendering:optimizeQuality; fill-rule:evenodd; clip-rule:evenodd"
viewBox="0 0 21000 29700"
 xmlns:xlink="http://www.w3.org/1999/xlink"
 xmlns:xodm="http://www.corel.com/coreldraw/odm/2003">
 <defs>
  <style type="text/css">
   <![CDATA[
    .fil0 {fill:black}
   ]]>
  </style>
 </defs>
 <g id="Camada_x0020_1">
  <metadata id="CorelCorpID_0Corel-Layer"/>
  <path class="fil0" d="M1834.22 23250l5689.05 0c-239.98,-349.61 -579.68,-823.54 -1157.74,-1188.57 -742.96,-469.04 -1848.53,-747.58 -2727.38,-922.34 -26.25,-5.19 255.34,-743.35 1194.35,-1788.13 746.74,-830.75 1702.57,-1593.43 2055.13,-1534.94 410.63,68.25 545.1,718.39 1029.56,1096.6 273.93,213.84 484.64,418.13 805.17,586.44 347.28,182.33 639.09,298.02 1028.26,390.74l0 -1361.57 512.54 330.69 558.33 0 512.51 -330.69 0 1361.57c389.18,-92.72 681,-208.41 1028.27,-390.74 320.54,-168.31 531.27,-372.6 805.17,-586.44 484.47,-378.21 618.96,-1028.35 1029.59,-1096.6 352.53,-58.49 1308.36,704.19 2055.12,1534.94 938.99,1044.78 1220.59,1782.94 1194.36,1788.13 -878.85,174.76 -1984.42,453.3 -2727.4,922.34 -578.06,365.03 -917.77,838.96 -1157.75,1188.57l1404.43 0 4029.38 0c1109.06,0 2004.84,-899.06 2004.84,-2004.84 0,-367.5 -101.72,-728.44 -292.03,-1043.44l-4331.25 -7097.34c-134.54,-219.85 -370.79,-354.38 -626.73,-354.38 -255.94,0 -492.19,134.53 -626.72,351.09l-1581.56 2592.19 -4131.1 -6585.47c-216.56,-347.81 -600.47,-557.81 -1010.63,-557.81 -410.16,0 -790.78,210 -1010.63,557.81l-7107.17 11333.44c-183.75,292.03 -282.19,630 -282.19,974.53 0,1013.91 820.31,1834.22 1834.22,1834.22z"/>
  <path class="fil0" d="M-19657.87 3154.68l-512.52 -330.68 0 1361.59c-389.18,-92.74 -681,-208.41 -1028.27,-390.75 -320.53,-168.31 -531.25,-372.59 -805.17,-586.45 -484.47,-378.2 -618.95,-1028.35 -1029.58,-1096.58 -352.55,-58.5 -1308.38,704.18 -2055.13,1534.93 -939,1044.77 -1220.59,1782.95 -1194.35,1788.15 878.84,174.74 1984.42,453.28 2727.38,922.32 1039.9,656.67 1308.62,1665.96 1612.57,1669.42 1123.56,12.87 2027,306.51 2533.33,983.14l30.94 42.49 30.86 -42.49c506.34,-676.63 1409.77,-970.27 2533.33,-983.14 303.95,-3.46 572.67,-1012.75 1612.57,-1669.42 742.96,-469.04 1848.54,-747.58 2727.39,-922.32 26.23,-5.2 -255.36,-743.38 -1194.35,-1788.15 -746.76,-830.75 -1702.59,-1593.43 -2055.13,-1534.93 -410.63,68.23 -545.12,718.38 -1029.59,1096.58 -273.92,213.86 -484.64,418.14 -805.17,586.45 -347.27,182.34 -639.09,298.01 -1028.27,390.75l0 -1361.59 -512.52 330.68 -558.32 0z"/>
 </g>
</svg>
